PathFileType	4	(X/Y/Z)	/Users/itak/Documents/Research/Walk-IL/dataset/trc/00535_00009.trc
DataRate	CameraRate	NumFrames	NumMarkers	Units	OrigDataRate	OrigDataStartFrame	OrigNumFrames
100.000000	100.000000	4	53	mm	100.000000	99	797
Frame#	Time	RPSI			LPSI			L3			STRN			T10			C7			CLAV			RBAK			LBAK			LSHO			LUPA			LAEL			LAOL			LWTS			LWPS			LFRA			LIFD			LHPS			LHTS			RSHO			RUPA			RAEL			RAOL			RWTS			RWPS			RFRA			RIFD			RHTS			RHPS			RBHD			LFHD			RFHD			LBHD			LHIP			RHIP			RASI			LASI			LKNE			LTHI			LANK			LTIP			LTOE			LMT1			LMT5			LHEE			RKNE			RTHI			RANK			RTIP			RTOE			RMT1			RMT5			RHEE			
		X1	Y1	Z1	X2	Y2	Z2	X3	Y3	Z3	X4	Y4	Z4	X5	Y5	Z5	X6	Y6	Z6	X7	Y7	Z7	X8	Y8	Z8	X9	Y9	Z9	X10	Y10	Z10	X11	Y11	Z11	X12	Y12	Z12	X13	Y13	Z13	X14	Y14	Z14	X15	Y15	Z15	X16	Y16	Z16	X17	Y17	Z17	X18	Y18	Z18	X19	Y19	Z19	X20	Y20	Z20	X21	Y21	Z21	X22	Y22	Z22	X23	Y23	Z23	X24	Y24	Z24	X25	Y25	Z25	X26	Y26	Z26	X27	Y27	Z27	X28	Y28	Z28	X29	Y29	Z29	X30	Y30	Z30	X31	Y31	Z31	X32	Y32	Z32	X33	Y33	Z33	X34	Y34	Z34	X35	Y35	Z35	X36	Y36	Z36	X37	Y37	Z37	X38	Y38	Z38	X39	Y39	Z39	X40	Y40	Z40	X41	Y41	Z41	X42	Y42	Z42	X43	Y43	Z43	X44	Y44	Z44	X45	Y45	Z45	X46	Y46	Z46	X47	Y47	Z47	X48	Y48	Z48	X49	Y49	Z49	X50	Y50	Z50	X51	Y51	Z51	X52	Y52	Z52	X53	Y53	Z53	

100	0.99	-895.961669921875	1026.15087890625	269.2987670898438	-876.8187866210938	1030.6552734375	137.4036407470703	-879.5647583007812	1110.010498046875	201.0945892333984	-652.9382934570312	1298.416748046875	218.5330963134766	-894.6202392578125	1236.279174804688	199.753662109375	-853.4935913085938	1509.23974609375	214.7951812744141	-675.9669189453125	1409.716064453125	217.5300140380859	-927.5784301757812	1383.420288085938	296.8817443847656	-878.3587646484375	1456.234252929688	119.5792846679688	-772.8550415039062	1482.883178710938	47.13283538818359	-770.3272094726562	1356.689697265625	-34.24123001098633	-736.5284423828125	1134.738525390625	-49.37187576293945	-830.8333740234375	1124.430297851562	-15.5145959854126	-647.6126098632812	894.6305541992188	15.77262306213379	-677.4605102539062	870.25390625	-62.31577301025391	-710.0003051757812	1049.3876953125	-50.93412780761719	-643.052001953125	719.8778076171875	6.711230278015137	-668.9276123046875	810.5991821289062	-51.90780258178711	-626.2315673828125	818.0910034179688	-0.02507386542856693	-803.973876953125	1472.011352539062	373.5167846679688	-824.8633422851562	1406.295043945312	440.6596984863281	-819.1817626953125	1115.493530273438	484.4711303710938	-873.1189575195312	1097.770385742188	457.8236389160156	-683.939208984375	896.952392578125	437.8550720214844	-725.298095703125	876.3558349609375	506.3836059570312	-807.40673828125	1060.39697265625	492.57470703125	-667.3814697265625	725.5086669921875	441.5119018554688	-651.8532104492188	807.2091674804688	452.6004943847656	-703.7539672851562	802.7054443359375	504.8295288085938	-804.1578369140625	1683.468505859375	281.8404541015625	-634.2596435546875	1726.623779296875	169.6764984130859	-670.2385864257812	1720.448852539062	309.0283813476562	-754.5863037109375	1690.017578125	123.6581954956055	-740.2678833007812	943.6035766601562	23.86112976074219	-794.6461791992188	941.7799072265625	404.0476684570312	-699.4320068359375	968.1856079101562	357.0015869140625	-665.9075317382812	963.6860961914062	82.57293701171875	-735.6235961914062	495.1983642578125	81.25996398925781	-726.5468139648438	661.390869140625	43.42129135131836	-810.1375122070312	35.99629211425781	80.29854583740234	-797.6437377929688	252.8073120117188	70.31588745117188	-604.769775390625	38.95337677001953	152.3829193115234	-679.4653930664062	40.77337265014648	183.0961608886719	-687.1984252929688	36.11641693115234	75.14209747314453	-883.2369995117188	36.31016540527344	130.3798675537109	-784.4952392578125	495.5679321289062	349.4355163574219	-764.1185302734375	784.38525390625	402.0981140136719	-863.3270263671875	36.52605819702148	313.3513793945312	-785.9300537109375	354.4591674804688	333.6363830566406	-638.7196044921875	39.16419982910156	305.1208801269531	-695.9067993164062	39.40229034423828	254.8838806152344	-734.2579345703125	37.5348014831543	352.7742309570312	-909.0223388671875	29.55905914306641	249.7284698486328	
101	1	-895.9814453125	1026.125732421875	269.1187744140625	-876.81982421875	1030.597534179688	137.1811676025391	-879.5736694335938	1110.068237304688	200.8791198730469	-652.89794921875	1298.399658203125	218.3702850341797	-894.672607421875	1236.337768554688	199.6475830078125	-853.3543701171875	1509.2724609375	214.6142578125	-675.7965698242188	1409.75927734375	217.3722686767578	-927.5256958007812	1383.493041992188	296.7460632324219	-878.2120971679688	1456.295776367188	119.337158203125	-772.7427978515625	1482.911010742188	46.95987319946289	-770.211669921875	1356.723876953125	-34.46854400634766	-736.4758911132812	1134.723510742188	-49.60692977905273	-830.79052734375	1124.451538085938	-15.84583377838135	-647.7416381835938	894.572998046875	15.57800483703613	-677.5484008789062	870.2451782226562	-62.49010467529297	-710.0291748046875	1049.38232421875	-51.10635757446289	-643.06591796875	719.9182739257812	6.563486576080322	-668.9899291992188	810.5970458984375	-52.10785293579102	-626.3121948242188	818.1110229492188	-0.2717810571193695	-803.8401489257812	1472.032958984375	373.3594970703125	-824.7861328125	1406.349731445312	440.5274963378906	-819.13623046875	1115.534545898438	484.2937927246094	-873.0732421875	1097.819702148438	457.6326599121094	-683.985595703125	896.9653930664062	437.6346130371094	-725.3200073242188	876.3865356445312	506.1920776367188	-807.43505859375	1060.420166015625	492.4252319335938	-667.4525756835938	725.5078735351562	441.2886657714844	-651.931396484375	807.22021484375	452.4039306640625	-703.788818359375	802.7256469726562	504.6903381347656	-803.833984375	1683.511962890625	281.6365051269531	-633.8814086914062	1726.468994140625	169.5088195800781	-669.9315185546875	1720.341186523438	308.8843078613281	-754.2110595703125	1690.010986328125	123.5051116943359	-739.8203735351562	943.3882446289062	23.78709411621094	-794.6957397460938	941.8041381835938	403.9467468261719	-699.3389282226562	968.2200927734375	356.7613830566406	-665.8646850585938	963.7378540039062	82.49989318847656	-735.5147705078125	495.1974792480469	81.21209716796875	-726.5144653320312	661.3779296875	43.31808853149414	-810.1312255859375	35.98328018188477	80.30350494384766	-797.5537109375	252.8423156738281	70.27532196044922	-604.7677612304688	38.95436477661133	152.3821563720703	-679.4491577148438	40.78111267089844	183.0854187011719	-687.1572265625	36.05173492431641	75.17864990234375	-883.2354736328125	36.31220626831055	130.3785400390625	-784.4219360351562	495.5746765136719	349.3548889160156	-764.0184936523438	784.3768310546875	401.9150085449219	-863.3279418945312	36.52145385742188	313.3523864746094	-785.8566284179688	354.4547119140625	333.5693664550781	-638.70947265625	39.16538238525391	305.1055603027344	-695.8997192382812	39.40776443481445	254.8785400390625	-734.258056640625	37.53775024414062	352.7705078125	-909.0264282226562	29.55284881591797	249.7312927246094	
102	1.01	-896.0048828125	1026.101196289062	268.9385986328125	-876.8252563476562	1030.543090820312	136.9619903564453	-879.5823974609375	1110.127197265625	200.6501617431641	-652.8738403320312	1298.38525390625	218.1959228515625	-894.7127685546875	1236.39599609375	199.5259704589844	-853.208740234375	1509.3154296875	214.4239349365234	-675.6198120117188	1409.793090820312	217.2002563476562	-927.4615478515625	1383.568603515625	296.5933532714844	-878.0603637695312	1456.351684570312	119.0766525268555	-772.6199951171875	1482.9423828125	46.77937316894531	-770.092529296875	1356.76318359375	-34.70407867431641	-736.4096069335938	1134.723266601562	-49.85366439819336	-830.7637939453125	1124.48046875	-16.1730785369873	-647.843994140625	894.5260009765625	15.38110160827637	-677.645751953125	870.2314453125	-62.66095352172852	-710.0565185546875	1049.38232421875	-51.28490447998047	-643.0817260742188	719.9718017578125	6.410799980163574	-669.0606079101562	810.598388671875	-52.33133316040039	-626.3911743164062	818.1082153320312	-0.5279691219329834	-803.69091796875	1472.051025390625	373.190673828125	-824.7045288085938	1406.408081054688	440.3854064941406	-819.085205078125	1115.580688476562	484.1031799316406	-873.0335693359375	1097.875	457.4279479980469	-684.032470703125	896.9784545898438	437.4060974121094	-725.3416748046875	876.4189453125	505.9773864746094	-807.47412109375	1060.451171875	492.2634887695312	-667.5319213867188	725.508056640625	441.0798645019531	-652.0282592773438	807.2267456054688	452.2069396972656	-703.84228515625	802.7435302734375	504.5201110839844	-803.4589233398438	1683.559936523438	281.4339599609375	-633.4951782226562	1726.30712890625	169.3302154541016	-669.6221923828125	1720.238037109375	308.7342224121094	-753.8179931640625	1690.002563476562	123.3432388305664	-739.2603759765625	943.1112670898438	23.7583179473877	-794.755126953125	941.8314208984375	403.8445434570312	-699.2391357421875	968.2589111328125	356.5126342773438	-665.8155517578125	963.7849731445312	82.42333984375	-735.385986328125	495.2130737304688	81.14914703369141	-726.4788818359375	661.3607177734375	43.20800399780273	-810.1228637695312	35.96164321899414	80.31591796875	-797.4600219726562	252.8755340576172	70.23676300048828	-604.7667236328125	38.95464324951172	152.3825073242188	-679.4312133789062	40.78921508789062	183.0738372802734	-687.1145629882812	35.9853401184082	75.21628570556641	-883.2347412109375	36.31321716308594	130.3756561279297	-784.3478393554688	495.5811462402344	349.2686767578125	-763.90771484375	784.364501953125	401.7157287597656	-863.3285522460938	36.51567459106445	313.3532104492188	-785.7808837890625	354.4501953125	333.5014953613281	-638.70263671875	39.16613388061523	305.0925903320312	-695.8917846679688	39.41353988647461	254.8729553222656	-734.2579956054688	37.54050064086914	352.7673034667969	-909.030029296875	29.54571914672852	249.7327880859375	
103	1.02	-896.0338134765625	1026.077514648438	268.7596740722656	-876.8316040039062	1030.4921875	136.7434844970703	-879.5955200195312	1110.1875	200.4138031005859	-652.86181640625	1298.3740234375	218.0080413818359	-894.7327270507812	1236.453735351562	199.3812866210938	-853.0551147460938	1509.367919921875	214.2221069335938	-675.4367065429688	1409.818481445312	217.0139465332031	-927.3825073242188	1383.647094726562	296.4192504882812	-877.9054565429688	1456.40087890625	118.8003158569336	-772.4834594726562	1482.975463867188	46.58820724487305	-769.969482421875	1356.80517578125	-34.94461441040039	-736.3327026367188	1134.740112304688	-50.11055374145508	-830.758544921875	1124.519775390625	-16.48408508300781	-647.913330078125	894.49267578125	15.17938232421875	-677.7564697265625	870.211669921875	-62.83563613891602	-710.0821533203125	1049.38916015625	-51.47226333618164	-643.0963745117188	720.03759765625	6.254778861999512	-669.1406860351562	810.60791015625	-52.58057403564453	-626.473388671875	818.0833129882812	-0.7890241146087646	-803.5263061523438	1472.064819335938	373.0122985839844	-824.6138305664062	1406.469848632812	440.2260131835938	-819.03369140625	1115.6318359375	483.90283203125	-873.0009155273438	1097.936401367188	457.2110900878906	-684.08154296875	896.989990234375	437.1726684570312	-725.3679809570312	876.4500732421875	505.7415771484375	-807.5244750976562	1060.491333007812	492.0935974121094	-667.6264038085938	725.5114135742188	440.8858337402344	-652.1482543945312	807.2293701171875	452.0075378417969	-703.9188232421875	802.7573852539062	504.3155517578125	-803.0388793945312	1683.612060546875	281.2400512695312	-633.10400390625	1726.13916015625	169.1408996582031	-669.30615234375	1720.139526367188	308.5755004882812	-753.4135131835938	1689.99072265625	123.1740875244141	-738.6268920898438	942.7944946289062	23.7700138092041	-794.8234252929688	941.8621826171875	403.7398071289062	-699.1409912109375	968.300537109375	356.2608642578125	-665.7677612304688	963.8208618164062	82.34222412109375	-735.2371826171875	495.2435302734375	81.07234954833984	-726.4378051757812	661.3419189453125	43.09319305419922	-810.11279296875	35.93460464477539	80.33336639404297	-797.3619384765625	252.9076385498047	70.19940185546875	-604.7666625976562	38.95393371582031	152.3839874267578	-679.4161376953125	40.79631042480469	183.0644836425781	-687.0753784179688	35.924560546875	75.25083160400391	-883.2340698242188	36.31339263916016	130.3715209960938	-784.2747802734375	495.5881042480469	349.1784973144531	-763.8055419921875	784.3563842773438	401.513427734375	-863.3289794921875	36.50925064086914	313.3540954589844	-785.7040405273438	354.4457702636719	333.4337768554688	-638.7020263671875	39.16644668579102	305.0849914550781	-695.8858032226562	39.41806030273438	254.8680572509766	-734.2576904296875	37.54298782348633	352.7645874023438	-909.0333251953125	29.53790664672852	249.733154296875	
